<svg width="1200" height="700" viewBox="0 0 1200 700" fill="none" xmlns="http://www.w3.org/2000/svg">
  <defs>
    <linearGradient id="bg3" x1="0" y1="0" x2="1200" y2="700" gradientUnits="userSpaceOnUse">
      <stop stop-color="#0F172A"/>
      <stop offset="1" stop-color="#1E293B"/>
    </linearGradient>
    <linearGradient id="accent3" x1="390" y1="280" x2="820" y2="470" gradientUnits="userSpaceOnUse">
      <stop stop-color="#FB7185"/>
      <stop offset="1" stop-color="#DC2626"/>
    </linearGradient>
  </defs>

  <rect width="1200" height="700" fill="url(#bg3)"/>
  <rect x="180" y="130" width="840" height="440" rx="28" fill="#0B1220" stroke="#334155"/>

  <rect x="245" y="205" width="410" height="290" rx="20" fill="#111827" stroke="#475569"/>
  <rect x="285" y="250" width="160" height="130" rx="16" fill="#1E293B"/>
  <circle cx="365" cy="305" r="36" fill="#475569"/>
  <path d="M320 366C340 338 390 338 410 366" stroke="#64748B" stroke-width="12" stroke-linecap="round"/>

  <rect x="695" y="205" width="260" height="120" rx="14" fill="#111827" stroke="#475569"/>
  <path d="M730 252H920" stroke="#64748B" stroke-width="10" stroke-linecap="round"/>
  <path d="M730 286H860" stroke="#64748B" stroke-width="10" stroke-linecap="round"/>

  <rect x="695" y="350" width="260" height="145" rx="14" fill="#111827" stroke="#475569"/>
  <rect x="730" y="384" width="190" height="32" rx="16" fill="url(#accent3)"/>
  <rect x="730" y="430" width="130" height="20" rx="10" fill="#64748B"/>

  <text x="180" y="95" fill="#F8FAFC" font-size="34" font-family="Arial, sans-serif" font-weight="700">Consultation &amp; Discovery</text>
</svg>
