<svg width="1200" height="700" viewBox="0 0 1200 700" fill="none" xmlns="http://www.w3.org/2000/svg">
  <defs>
    <linearGradient id="bg" x1="0" y1="0" x2="1200" y2="700" gradientUnits="userSpaceOnUse">
      <stop stop-color="#0B1220"/>
      <stop offset="1" stop-color="#1E293B"/>
    </linearGradient>
    <linearGradient id="card" x1="260" y1="150" x2="940" y2="560" gradientUnits="userSpaceOnUse">
      <stop stop-color="#111827"/>
      <stop offset="1" stop-color="#0F172A"/>
    </linearGradient>
    <linearGradient id="accent" x1="350" y1="210" x2="760" y2="470" gradientUnits="userSpaceOnUse">
      <stop stop-color="#F87171"/>
      <stop offset="1" stop-color="#FB7185"/>
    </linearGradient>
  </defs>

  <rect width="1200" height="700" fill="url(#bg)"/>
  <circle cx="170" cy="130" r="120" fill="#DC2626" fill-opacity="0.18"/>
  <circle cx="1040" cy="590" r="180" fill="#2563EB" fill-opacity="0.12"/>

  <rect x="250" y="135" width="700" height="430" rx="28" fill="url(#card)" stroke="#334155"/>

  <rect x="305" y="200" width="440" height="42" rx="10" fill="#1F2937"/>
  <rect x="305" y="262" width="360" height="18" rx="9" fill="#334155"/>
  <rect x="305" y="294" width="312" height="18" rx="9" fill="#334155"/>

  <rect x="305" y="350" width="240" height="140" rx="16" fill="#111827" stroke="#475569"/>
  <path d="M340 390H510" stroke="url(#accent)" stroke-width="14" stroke-linecap="round"/>
  <path d="M340 424H470" stroke="#64748B" stroke-width="10" stroke-linecap="round"/>
  <path d="M340 454H448" stroke="#64748B" stroke-width="10" stroke-linecap="round"/>

  <rect x="570" y="350" width="325" height="140" rx="16" fill="#111827" stroke="#475569"/>
  <circle cx="635" cy="420" r="28" fill="#FB7185" fill-opacity="0.24" stroke="#FB7185" stroke-width="3"/>
  <path d="M697 392H844" stroke="#64748B" stroke-width="10" stroke-linecap="round"/>
  <path d="M697 424H810" stroke="#64748B" stroke-width="10" stroke-linecap="round"/>
  <path d="M697 454H780" stroke="#64748B" stroke-width="10" stroke-linecap="round"/>

  <text x="304" y="118" fill="#F8FAFC" font-size="34" font-family="Arial, sans-serif" font-weight="700">Engineering Playbooks</text>
</svg>
