<svg width="1440" height="900" viewBox="0 0 1440 900" fill="none" xmlns="http://www.w3.org/2000/svg">
  <g opacity="0.9" stroke="#F05A4A" stroke-width="1.5">
    <path d="M-120 438C65 438 165 322 336 322C520 322 702 429 850 597C950 710 1019 818 1135 818C1254 818 1358 793 1560 793"/>
    <path d="M-120 454C65 454 165 338 336 338C520 338 702 445 850 613C950 726 1019 834 1135 834C1254 834 1358 809 1560 809"/>
    <path d="M-120 470C65 470 165 354 336 354C520 354 702 461 850 629C950 742 1019 850 1135 850C1254 850 1358 825 1560 825"/>
    <path d="M-120 486C65 486 165 370 336 370C520 370 702 477 850 645C950 758 1019 866 1135 866C1254 866 1358 841 1560 841"/>
    <path d="M-120 502C65 502 165 386 336 386C520 386 702 493 850 661C950 774 1019 882 1135 882C1254 882 1358 857 1560 857"/>
    <path d="M-120 518C65 518 165 402 336 402C520 402 702 509 850 677C950 790 1019 898 1135 898C1254 898 1358 873 1560 873"/>
    <path d="M-120 534C65 534 165 418 336 418C520 418 702 525 850 693C950 806 1019 914 1135 914C1254 914 1358 889 1560 889"/>
    <path d="M-120 550C65 550 165 434 336 434C520 434 702 541 850 709C950 822 1019 930 1135 930C1254 930 1358 905 1560 905"/>
    <path d="M-120 566C65 566 165 450 336 450C520 450 702 557 850 725C950 838 1019 946 1135 946C1254 946 1358 921 1560 921"/>
    <path d="M-120 582C65 582 165 466 336 466C520 466 702 573 850 741C950 854 1019 962 1135 962C1254 962 1358 937 1560 937"/>
    <path d="M-120 598C65 598 165 482 336 482C520 482 702 589 850 757C950 870 1019 978 1135 978C1254 978 1358 953 1560 953"/>
    <path d="M-120 614C65 614 165 498 336 498C520 498 702 605 850 773C950 886 1019 994 1135 994C1254 994 1358 969 1560 969"/>
    <path d="M-120 630C65 630 165 514 336 514C520 514 702 621 850 789C950 902 1019 1010 1135 1010C1254 1010 1358 985 1560 985"/>
    <path d="M-120 646C65 646 165 530 336 530C520 530 702 637 850 805C950 918 1019 1026 1135 1026C1254 1026 1358 1001 1560 1001"/>
    <path d="M-120 662C65 662 165 546 336 546C520 546 702 653 850 821C950 934 1019 1042 1135 1042C1254 1042 1358 1017 1560 1017"/>
    <path d="M-120 678C65 678 165 562 336 562C520 562 702 669 850 837C950 950 1019 1058 1135 1058C1254 1058 1358 1033 1560 1033"/>
  </g>
</svg>
